<svg xmlns="http://www.w3.org/2000/svg" viewBox="0 0 256 256">
  <rect width="256" height="256" rx="60" fill="#242938"></rect>
  <path d="M 46.829 143.895 L 46.829 35.804 C 46.829 33.884 48.194 32.318 49.858 32.318 L 192.243 32.318 C 193.907 32.318 195.272 33.887 195.272 35.804 L 195.272 143.895 L 46.829 143.895 Z" style=""></path>
  <g transform="matrix(0.326169, 0, 0, 0.392268, 46.829112, 24.600721)" style="">
    <path style="fill:#999999;" d="M455.112,304.112v37.92c0,5.216-4.184,9.488-9.288,9.488H9.288C4.184,351.528,0,347.256,0,342.048
		v-37.92L455.112,304.112L455.112,304.112z"></path>
    <polygon style="fill:#999999;" points="161.184,417.896 293.92,417.896 284.448,351.528 170.664,351.528 	"></polygon>
  </g>
  <g transform="matrix(0.326169, 0, 0, 0.392268, 46.829112, 24.600721)" style="">
    <polygon style="fill:#636363;" points="284.448,351.528 170.664,351.528 164.76,392.888 286.656,366.992 	"></polygon>
    <rect x="128" y="417.92" style="fill:#636363;" width="199.112" height="9.48"></rect>
  </g>
  <rect x="64.935" y="47.802" style="fill: rgb(153, 153, 153);" width="50.916" height="34.833"></rect>
  <rect x="64.935" y="93.581" style="fill: rgb(85, 110, 228);" width="50.916" height="34.833"></rect>
  <rect x="126.25" y="47.802" style="fill: rgb(153, 153, 153);" width="50.916" height="34.833"></rect>
  <rect x="126.25" y="93.581" style="fill: rgb(85, 110, 228);" width="50.916" height="34.833"></rect>
  <path d="M 210.962 217.726 L 163.206 217.726 C 161.63 217.726 160.341 216.176 160.341 214.28 L 160.341 106.303 C 160.341 104.407 161.63 102.857 163.206 102.857 L 210.962 102.857 C 212.538 102.857 213.827 104.407 213.827 106.303 L 213.827 214.28 C 213.827 216.176 212.538 217.726 210.962 217.726 Z" style=""></path>
  <rect x="163.206" y="112.049" width="47.756" height="91.885" style=""></rect>
  <g transform="matrix(0.326169, 0, 0, 0.392268, 46.829112, 24.600721)" style="">
    <path style="fill:#999999;" d="M447.424,214.136h-35.136c-1.608,0-2.928-1.32-2.928-2.928l0,0c0-1.608,1.32-2.928,2.928-2.928
		h35.136c1.608,0,2.928,1.32,2.928,2.928l0,0C450.352,212.824,449.032,214.136,447.424,214.136z"></path>
    <path style="fill:#999999;" d="M447.576,474.76H412.44c-1.608,0-2.928-1.32-2.928-2.928l0,0c0-1.608,1.32-2.928,2.928-2.928h35.136
		c1.608,0,2.928,1.32,2.928,2.928l0,0C450.504,473.44,449.184,474.76,447.576,474.76z"></path>
    <rect x="374.376" y="243.848" style="fill:#999999;" width="50.344" height="46.76"></rect>
    <rect x="435.28" y="243.848" style="fill:#999999;" width="50.344" height="46.76"></rect>
  </g>
  <g transform="matrix(0.326169, 0, 0, 0.392268, 46.829112, 24.600721)" style="">
    <rect x="374.376" y="302.184" style="fill: rgb(85, 110, 228);" width="50.344" height="46.76"></rect>
    <rect x="435.28" y="302.184" style="fill: rgb(85, 110, 228);" width="50.344" height="46.76"></rect>
  </g>
  <g transform="matrix(0.326169, 0, 0, 0.392268, 46.829112, 24.600721)" style="">
    <rect x="374.376" y="431.528" style="fill:#FFFFFF;" width="111.272" height="4.744"></rect>
    <rect x="374.376" y="412.92" style="fill:#FFFFFF;" width="111.272" height="4.744"></rect>
    <rect x="374.376" y="394.32" style="fill:#FFFFFF;" width="111.272" height="4.744"></rect>
    <rect x="374.376" y="375.712" style="fill:#FFFFFF;" width="111.272" height="4.744"></rect>
  </g>
</svg>