<svg viewBox="0 0 256 256" version="1.1" xmlns="http://www.w3.org/2000/svg" xmlns:xlink="http://www.w3.org/1999/xlink" preserveAspectRatio="xMidYMid">
  <rect width="256" height="256" rx="60" fill="#242938" x="-0.119" y="1.051"></rect>
  <g fill="#FFFFFF" style="" transform="matrix(0.791813, 0, 0, 0.886442, 0.371487, 21.621344)">
    <path d="M 45.382 51.817 L 103.262 51.817 L 103.262 69.42 L 45.382 69.42 L 45.382 51.817 Z M 45.382 19.125 L 103.262 19.125 L 103.262 36.728 L 45.382 36.728 L 45.382 19.125 Z M 149.226 84.257 L 45.382 84.257 L 45.382 101.86 L 145.335 101.86 C 156.279 101.86 181.814 102.111 191.299 117.954 L 191.299 108.147 C 186.678 92.555 173.059 84.257 149.226 84.257 Z M 149.469 116.948 L 45.382 116.948 L 45.382 134.551 L 145.335 134.551 C 169.654 134.551 184.976 135.557 191.299 139.078 L 191.299 131.282 C 186.435 118.96 166.006 116.948 149.469 116.948 Z M 149.226 199.934 L 45.382 199.934 L 45.382 182.331 L 145.335 182.331 C 156.279 182.331 181.814 182.08 191.299 166.237 L 191.299 176.044 C 186.678 191.636 173.059 199.934 149.226 199.934 Z M 149.469 167.243 L 45.382 167.243 L 45.382 149.64 L 145.335 149.64 C 169.654 149.64 184.976 148.634 191.299 145.113 L 191.299 152.909 C 186.435 165.231 166.006 167.243 149.469 167.243 Z M 216.591 230.363 L 292.954 230.363 L 292.954 219.549 L 218.78 219.549 C 212.213 219.549 196.649 219.298 191.055 209.993 L 191.055 216.029 C 193.731 225.333 201.999 230.363 216.591 230.363 Z M 216.348 210.496 L 292.711 210.496 L 292.711 199.683 L 218.78 199.683 C 203.945 199.683 194.703 199.18 191.055 196.917 L 191.055 201.695 C 193.974 209.239 206.377 210.496 216.348 210.496 Z" style=""></path>
  </g>
</svg>

