<svg width="256" height="256" viewBox="0 0 256 256" fill="none" xmlns="http://www.w3.org/2000/svg">
<rect width="256" height="256" rx="60" fill="#242938"/>
<path fill-rule="evenodd" clip-rule="evenodd" d="M 198.201 54.507 L 202.526 60.308 C 203.662 61.839 203.378 64.034 201.875 65.191 L 197.282 68.746 C 198.118 71.009 198.652 73.424 198.869 75.891 L 204.096 76.623 C 205.966 76.878 207.269 78.647 207.018 80.553 L 206.05 87.782 C 205.799 89.687 204.063 91.032 202.192 90.759 L 196.481 89.96 C 195.462 92.222 194.16 94.298 192.624 96.152 L 195.83 100.439 C 196.965 101.97 196.665 104.165 195.162 105.322 L 189.467 109.728 C 187.965 110.885 185.811 110.578 184.676 109.065 L 181.185 104.386 C 178.948 105.236 176.593 105.781 174.155 106.002 L 173.437 111.327 C 173.186 113.232 171.45 114.559 169.579 114.304 L 162.483 113.318 C 160.612 113.062 159.31 111.293 159.561 109.388 L 160.345 103.57 C 158.141 102.532 156.087 101.205 154.267 99.656 L 150.059 102.906 C 148.556 104.063 146.402 103.774 145.266 102.243 L 140.941 96.441 C 139.806 94.91 140.09 92.716 141.593 91.559 L 146.184 88.003 C 145.35 85.724 144.816 83.325 144.598 80.858 L 139.371 80.127 C 137.502 79.872 136.182 78.102 136.449 76.197 L 137.418 68.967 C 137.685 67.062 139.405 65.735 141.275 65.99 L 146.986 66.79 C 148.004 64.544 149.307 62.451 150.827 60.597 L 147.638 56.31 C 146.502 54.796 146.786 52.602 148.288 51.445 L 153.983 47.039 C 155.486 45.882 157.64 46.172 158.776 47.702 L 162.265 52.38 C 164.487 51.53 166.857 50.985 169.279 50.764 L 169.997 45.44 C 170.248 43.535 171.984 42.19 173.855 42.445 L 180.952 43.432 C 182.821 43.687 184.14 45.457 183.874 47.362 L 183.089 53.18 C 185.31 54.218 187.347 55.545 189.184 57.11 L 193.392 53.861 C 194.895 52.687 197.049 52.976 198.201 54.507 Z M 76.1 156.596 L 76.1 128.526 L 90.294 128.526 C 92.933 128.526 94.936 128.747 96.323 129.224 C 97.708 129.683 98.844 130.533 99.679 131.776 C 100.531 133.034 100.965 134.549 100.965 136.335 C 100.965 137.883 100.631 139.244 99.979 140.366 C 99.328 141.506 98.427 142.425 97.291 143.123 C 96.573 143.565 95.571 143.939 94.302 144.229 C 95.321 144.586 96.055 144.909 96.506 145.266 C 96.824 145.504 97.274 145.998 97.859 146.746 C 98.443 147.495 98.844 148.09 99.044 148.498 L 103.185 156.613 L 93.567 156.613 L 89.025 148.056 C 88.44 146.951 87.939 146.219 87.489 145.895 C 86.871 145.47 86.17 145.249 85.401 145.249 L 84.649 145.249 L 84.649 156.613 L 76.1 156.613 L 76.1 156.596 Z M 106.124 205.471 L 90.227 205.471 L 87.939 213.093 L 73.612 213.093 L 90.695 166.837 L 106.058 166.837 L 123.074 213.093 L 108.379 213.093 L 106.124 205.471 Z M 103.152 195.451 L 98.192 178.813 L 93.217 195.451 L 103.152 195.451 Z M 126.38 166.837 L 149.725 166.837 C 154.818 166.837 158.625 168.062 161.146 170.529 C 163.668 172.996 164.937 176.517 164.937 181.059 C 164.937 185.737 163.551 189.395 160.796 192.032 C 158.04 194.669 153.816 195.979 148.155 195.979 L 140.457 195.979 L 140.457 213.093 L 126.38 213.093 L 126.38 166.837 Z M 140.457 186.605 L 143.914 186.605 C 146.636 186.605 148.556 186.129 149.658 185.159 C 150.76 184.206 151.311 182.965 151.311 181.484 C 151.311 180.039 150.827 178.797 149.875 177.793 C 148.924 176.789 147.12 176.278 144.481 176.278 L 140.457 176.278 L 140.457 186.605 Z M 170.615 166.837 L 184.692 166.837 L 184.692 213.093 L 170.615 213.093 L 170.615 166.837 Z M 84.649 139.924 L 88.24 139.924 C 88.624 139.924 89.375 139.788 90.495 139.533 C 91.062 139.414 91.53 139.125 91.88 138.648 C 92.248 138.172 92.415 137.628 92.415 137.016 C 92.415 136.113 92.131 135.399 91.563 134.923 C 90.996 134.429 89.943 134.192 88.391 134.192 L 84.649 134.192 L 84.649 139.924 Z M 104.822 128.526 L 127.615 128.526 L 127.615 134.515 L 113.372 134.515 L 113.372 138.989 L 126.58 138.989 L 126.58 144.705 L 113.372 144.705 L 113.372 150.234 L 128.033 150.234 L 128.033 156.579 L 104.822 156.579 L 104.822 128.526 Z M 130.054 147.308 L 138.136 146.797 C 138.303 148.141 138.67 149.145 139.205 149.843 C 140.09 150.965 141.342 151.543 142.962 151.543 C 144.164 151.543 145.116 151.254 145.767 150.676 C 146.419 150.098 146.752 149.417 146.752 148.651 C 146.752 147.92 146.435 147.274 145.818 146.696 C 145.199 146.116 143.747 145.59 141.459 145.062 C 137.735 144.211 135.08 143.071 133.477 141.66 C 131.874 140.247 131.073 138.445 131.073 136.249 C 131.073 134.804 131.49 133.443 132.308 132.167 C 133.126 130.891 134.362 129.871 136.015 129.138 C 137.668 128.407 139.923 128.05 142.795 128.05 C 146.319 128.05 148.99 128.713 150.844 130.057 C 152.68 131.402 153.783 133.511 154.133 136.437 L 146.135 136.93 C 145.918 135.655 145.466 134.718 144.799 134.158 C 144.114 133.579 143.162 133.289 141.976 133.289 C 140.992 133.289 140.24 133.511 139.739 133.936 C 139.238 134.361 138.988 134.889 138.988 135.501 C 138.988 135.944 139.205 136.335 139.606 136.709 C 140.006 137.066 140.941 137.423 142.444 137.747 C 146.168 138.563 148.84 139.397 150.443 140.231 C 152.046 141.064 153.231 142.102 153.95 143.344 C 154.684 144.569 155.052 145.963 155.052 147.495 C 155.052 149.297 154.568 150.948 153.582 152.462 C 152.613 153.976 151.245 155.133 149.491 155.916 C 147.738 156.698 145.534 157.089 142.861 157.089 C 138.186 157.089 134.93 156.171 133.126 154.333 C 131.323 152.462 130.304 150.132 130.054 147.308 Z M 156.287 128.526 L 182.187 128.526 L 182.187 135.467 L 173.503 135.467 L 173.503 156.596 L 164.988 156.596 L 164.988 135.467 L 156.287 135.467 L 156.287 128.526 Z M 127.633 61.907 C 124.576 61.669 121.487 61.703 118.432 62.01 C 109.03 62.928 99.896 66.415 92.348 72.386 C 83.614 79.276 76.985 89.586 74.431 103.246 L 73.629 107.516 L 69.454 108.265 C 65.363 108.997 61.706 110 58.5 111.276 C 55.394 112.501 52.621 114.015 50.2 115.801 C 48.263 117.23 46.593 118.829 45.174 120.564 C 40.782 125.923 38.745 132.643 38.796 139.448 C 38.845 146.355 41.049 153.329 45.124 159.063 C 46.644 161.189 48.397 163.146 50.401 164.847 C 52.438 166.565 54.725 167.994 57.297 169.066 C 58.75 169.678 60.303 170.189 61.923 170.596 L 61.923 183.339 C 58.583 182.726 55.51 181.808 52.639 180.599 C 48.848 179.001 45.491 176.942 42.536 174.425 C 39.73 172.043 37.276 169.338 35.189 166.395 C 29.627 158.57 26.621 149.008 26.555 139.482 C 26.488 129.853 29.427 120.275 35.773 112.517 C 37.827 110 40.248 107.686 43.02 105.645 C 46.243 103.263 49.934 101.256 54.108 99.606 C 56.98 98.466 60.052 97.513 63.293 96.748 C 66.966 81.879 74.797 70.43 84.867 62.486 C 94.285 55.051 105.623 50.714 117.296 49.574 C 123.425 48.978 129.636 49.251 135.715 50.407 C 135.581 50.969 135.464 51.53 135.397 52.109 L 135.381 52.211 C 135.264 53.18 135.214 54.15 135.264 55.136 C 133.978 55.647 132.776 56.344 131.69 57.195 L 131.64 57.229 C 130.02 58.471 128.651 60.07 127.633 61.907 Z M 215.985 94.57 C 216.921 95.437 217.822 96.339 218.708 97.309 C 220.494 99.265 222.18 101.477 223.767 103.943 C 229.11 112.314 231.849 123.49 231.732 134.429 C 231.615 145.164 228.777 155.848 222.965 163.707 C 219.174 168.828 214.316 173.012 208.488 176.33 C 204.496 178.61 200.004 180.498 195.112 182.029 L 195.112 168.844 C 197.75 167.841 200.205 166.718 202.46 165.442 C 206.851 162.941 210.441 159.896 213.13 156.239 C 217.305 150.574 219.358 142.561 219.442 134.344 C 219.542 125.719 217.471 117.06 213.447 110.765 C 212.295 108.945 211.026 107.312 209.69 105.849 C 209.173 105.288 208.655 104.76 208.12 104.25 C 208.204 103.399 208.237 102.532 208.187 101.664 C 209.473 101.154 210.675 100.457 211.76 99.606 L 211.811 99.572 C 213.53 98.227 214.966 96.527 215.985 94.57 Z M 173.638 64.187 C 181.335 65.259 186.712 72.489 185.66 80.331 C 184.608 88.174 177.511 93.669 169.814 92.597 C 162.115 91.525 156.721 84.295 157.79 76.452 C 158.859 68.61 165.939 63.115 173.638 64.187 Z" fill="#01B5E6" style=""></path>
</svg>