<svg width="256" height="256" viewBox="0 0 256 256" xmlns="http://www.w3.org/2000/svg" xmlns:bx="https://boxy-svg.com">
  <rect width="256" height="256" rx="60" fill="#242938" ></rect>
  <bx:title>file_type_swagger</bx:title>
  <path d="M 227.748 129.341 C 227.74 205.071 145.461 252.401 79.639 214.529 C 13.822 176.657 13.83 81.99 79.653 44.129 C 118.356 21.868 167.236 28.286 198.832 59.77 C 217.378 78.201 227.783 103.239 227.748 129.341 Z" style="fill: rgb(109, 154, 0);"></path>
  <path d="M 93.004 129.202 C 92.816 124.664 96.56 120.936 101.11 121.13 C 107.346 121.137 111.236 127.864 108.111 133.242 C 104.989 138.616 97.194 138.608 94.085 133.228 C 93.379 131.999 93.004 130.613 93.004 129.202 Z" style="fill: rgb(255, 255, 255);"></path>
  <path d="M 120.973 129.202 C 120.785 124.664 124.528 120.936 129.079 121.13 C 135.314 121.137 139.205 127.864 136.08 133.242 C 132.958 138.616 125.168 138.608 122.052 133.228 C 121.347 131.999 120.973 130.613 120.973 129.202 Z" style="fill: rgb(255, 255, 255);"></path>
  <path d="M 148.927 129.202 C 148.739 124.664 152.482 120.936 157.032 121.13 C 163.266 121.137 167.155 127.864 164.034 133.242 C 160.91 138.616 153.118 138.608 150.007 133.228 C 149.298 131.999 148.927 130.613 148.927 129.202 Z" style="fill: rgb(255, 255, 255);"></path>
  <path d="M 59.475 136.699 L 59.475 122.248 C 61.961 122.245 64.429 121.847 66.787 121.073 C 68.322 120.223 69.585 118.958 70.429 117.428 C 71.544 115.445 72.261 113.266 72.538 111.012 C 72.913 107.673 73.068 104.315 72.992 100.957 C 72.821 95.511 73.163 90.058 74.012 84.67 C 74.532 81.899 75.815 79.322 77.713 77.23 C 79.462 75.092 81.796 73.507 84.435 72.668 C 88.007 71.807 91.68 71.44 95.354 71.584 L 98.366 71.584 L 98.366 83.466 C 95.641 83.296 92.907 83.549 90.257 84.218 C 89.14 84.656 88.202 85.464 87.612 86.506 C 86.968 89.048 86.689 91.666 86.784 94.287 C 86.784 96.818 86.611 101.614 86.269 108.681 C 86.194 111.952 85.695 115.2 84.791 118.347 C 84.135 120.537 83.104 122.607 81.747 124.453 C 80.128 126.391 78.22 128.063 76.087 129.413 C 78.195 130.663 80.055 132.287 81.578 134.202 C 83.078 136.181 84.186 138.424 84.85 140.814 C 85.727 144.241 86.224 147.753 86.326 151.288 C 86.591 157.951 86.724 162.207 86.724 164.054 C 86.627 166.652 86.934 169.251 87.637 171.759 C 88.276 172.832 89.244 173.666 90.4 174.138 C 92.998 174.856 95.699 175.136 98.392 174.966 L 98.392 187.251 L 95.378 187.251 C 91.739 187.334 88.115 186.799 84.659 185.666 C 82.019 184.876 79.636 183.414 77.738 181.425 C 75.818 179.336 74.512 176.76 73.955 173.983 C 73.18 169.38 72.856 164.711 72.985 160.043 C 73.18 155.228 72.876 150.405 72.073 145.65 C 71.565 143.016 70.241 140.603 68.287 138.757 C 65.584 137.31 62.544 136.6 59.475 136.699 Z" style="fill: rgb(255, 255, 255);"></path>
  <path d="M 189.458 138.789 C 187.504 140.638 186.179 143.047 185.672 145.682 C 184.868 150.438 184.564 155.262 184.76 160.077 C 184.883 164.734 184.554 169.391 183.774 173.983 C 183.218 176.76 181.908 179.336 179.988 181.425 C 178.105 183.437 175.721 184.921 173.079 185.73 C 169.623 186.866 165.998 187.403 162.359 187.317 L 159.347 187.317 L 159.347 175.057 C 162.038 175.226 164.74 174.945 167.336 174.229 C 168.493 173.757 169.461 172.922 170.102 171.848 C 170.804 169.346 171.112 166.744 171.013 164.145 C 171.013 162.297 171.146 158.045 171.413 151.379 C 171.52 147.848 172.02 144.339 172.904 140.913 C 173.565 138.522 174.674 136.279 176.173 134.299 C 177.696 132.385 179.558 130.765 181.667 129.514 C 179.535 128.162 177.622 126.49 176.009 124.551 C 174.652 122.705 173.622 120.638 172.964 118.444 C 172.058 115.298 171.563 112.05 171.485 108.778 C 171.143 101.713 170.973 96.915 170.973 94.385 C 171.063 91.767 170.783 89.146 170.14 86.605 C 169.549 85.562 168.615 84.755 167.494 84.317 C 164.848 83.647 162.116 83.395 159.389 83.564 L 159.389 71.603 L 162.401 71.603 C 166.072 71.456 169.749 71.821 173.32 72.683 C 175.956 73.525 178.291 75.108 180.038 77.249 C 181.939 79.339 183.218 81.913 183.739 84.69 C 184.59 90.072 184.932 95.526 184.76 100.976 C 184.687 104.334 184.84 107.69 185.218 111.027 C 185.491 113.282 186.208 115.464 187.326 117.443 C 188.172 118.977 189.433 120.238 190.967 121.088 C 193.331 121.871 195.801 122.273 198.294 122.277 L 198.294 136.699 C 195.215 136.607 192.166 137.328 189.458 138.789 Z" style="fill: rgb(255, 255, 255);"></path>
</svg>