<svg xmlns="http://www.w3.org/2000/svg" viewBox="0 0 256 256">
  <rect width="256" height="256" rx="60" fill="#39425c" x="0.008" y="0.398"></rect>
  <!-- <rect width="218" height="218" rx="60" x="19" y="19" style="fill: rgb(86, 100, 144);"></rect> -->
  <polygon id="Y" points="120.544 40.58 87.836 87.558 87.836 117.34 67.789 117.34 67.789 87.558 36.546 40.58 59.078 40.58 78.945 70.829 98.974 40.58 120.544 40.58 120.544 40.58" style="" stroke="white&quot; points=&quot;116.906 39.737 82.989 86.962 82.989 116.9 62.201 116.9 62.201 86.962 29.803 39.737 53.168 39.737 73.769 70.145 94.539 39.737 116.906 39.737 116.906 39.737" fill="white&quot; points=&quot;116.906 39.737 82.989 86.962 82.989 116.9 62.201 116.9 62.201 86.962 29.803 39.737 53.168 39.737 73.769 70.145 94.539 39.737 116.906 39.737 116.906 39.737"></polygon>
  <path id="A" fill="#cb171e" d="M 154.21 100.45 L 117.923 100.45 L 110.543 117.519 L 94.474 117.519 L 128.452 40.759 L 144.887 40.759 L 177.487 117.519 L 160.315 117.519 L 154.209 100.45 L 154.21 100.45 Z M 148.181 85.124 L 137.057 56.956 L 124.647 85.124 L 148.181 85.124 Z" style=""></path>
  <polygon id="M" points="67.789 125.948 67.789 201.18 84.64 201.18 84.64 149.285 102.276 184.166 115.539 184.166 133.777 148.06 133.777 201.164 149.943 201.164 149.943 125.948 127.87 125.948 108.285 159.971 89.633 125.948 67.789 125.948 67.789 125.948" style=""></polygon>
  <polygon id="L" points="218.939 184.831 177.487 184.831 177.487 125.931 160.317 125.931 160.317 200.839 218.939 200.839 218.939 184.831 218.939 184.831" style=""></polygon>
</svg>